<svg width="102" height="32" viewBox="0 0 102 32" fill="none" xmlns="http://www.w3.org/2000/svg">
<path d="M40.0391 15.6382V0.762665H50.0876V3.3557H43.2477V6.9003H49.4207V9.49336H43.2477V15.6382H40.0391ZM56.4939 15.8562C55.3429 15.8562 54.3474 15.6164 53.5075 15.1371C52.6726 14.6528 52.0279 13.9798 51.5734 13.1178C51.1189 12.2511 50.8916 11.2463 50.8916 10.1035C50.8916 8.95101 51.1189 7.94381 51.5734 7.08187C52.0279 6.2151 52.6726 5.542 53.5075 5.06263C54.3474 4.57842 55.3429 4.33628 56.4939 4.33628C57.645 4.33628 58.638 4.57842 59.473 5.06263C60.313 5.542 60.9598 6.2151 61.4145 7.08187C61.8692 7.94381 62.0962 8.95101 62.0962 10.1035C62.0962 11.2463 61.8692 12.2511 61.4145 13.1178C60.9598 13.9798 60.313 14.6528 59.473 15.1371C58.638 15.6164 57.645 15.8562 56.4939 15.8562ZM56.5087 13.4592C57.0324 13.4592 57.4697 13.3139 57.8204 13.0234C58.1712 12.728 58.4355 12.3261 58.6133 11.8177C58.7961 11.3092 58.8875 10.7305 58.8875 10.0817C58.8875 9.4328 58.7961 8.85414 58.6133 8.34573C58.4355 7.83726 58.1712 7.43534 57.8204 7.13996C57.4697 6.84458 57.0324 6.69689 56.5087 6.69689C55.9802 6.69689 55.5355 6.84458 55.1749 7.13996C54.8192 7.43534 54.5499 7.83726 54.3671 8.34573C54.1893 8.85414 54.1004 9.4328 54.1004 10.0817C54.1004 10.7305 54.1893 11.3092 54.3671 11.8177C54.5499 12.3261 54.8192 12.728 55.1749 13.0234C55.5355 13.3139 55.9802 13.4592 56.5087 13.4592ZM54.2338 2.9562C53.8089 2.9562 53.4433 2.81093 53.137 2.52039C52.8307 2.22501 52.6776 1.87639 52.6776 1.47448C52.6776 1.06288 52.8307 0.714238 53.137 0.428541C53.4433 0.142849 53.8089 0 54.2338 0C54.6636 0 55.0266 0.142849 55.3231 0.428541C55.6245 0.714238 55.7752 1.06288 55.7752 1.47448C55.7752 1.87639 55.6245 2.22501 55.3231 2.52039C55.0266 2.81093 54.6636 2.9562 54.2338 2.9562ZM58.769 2.9562C58.3441 2.9562 57.9785 2.81093 57.6722 2.52039C57.3659 2.22501 57.2127 1.87639 57.2127 1.47448C57.2127 1.06288 57.3659 0.714238 57.6722 0.428541C57.9785 0.142849 58.3441 0 58.769 0C59.1988 0 59.5619 0.142849 59.8583 0.428541C60.1596 0.714238 60.3106 1.06288 60.3106 1.47448C60.3106 1.87639 60.1596 2.22501 59.8583 2.52039C59.5619 2.81093 59.1988 2.9562 58.769 2.9562ZM64.1492 15.6382V4.48155H67.2092V6.42813H67.3278C67.5356 5.73573 67.8837 5.21274 68.3727 4.85927C68.8623 4.50091 69.4254 4.32176 70.0625 4.32176C70.2203 4.32176 70.3907 4.33144 70.5738 4.3508C70.7563 4.37016 70.9171 4.39679 71.0556 4.43073V7.17632C70.9075 7.1327 70.7021 7.09397 70.4401 7.06009C70.1788 7.02621 69.9391 7.00921 69.7217 7.00921C69.2573 7.00921 68.8424 7.10849 68.4769 7.30707C68.1161 7.50074 67.8295 7.77191 67.6169 8.12054C67.4097 8.46922 67.3055 8.87108 67.3055 9.32625V15.6382H64.1492ZM76.3522 15.8198C75.4874 15.8198 74.7045 15.6019 74.0029 15.1661C73.3061 14.7255 72.7533 14.079 72.3432 13.2267C71.9379 12.3696 71.7355 11.3189 71.7355 10.0744C71.7355 8.79606 71.9451 7.73313 72.3655 6.88578C72.7852 6.03353 73.3435 5.39673 74.0403 4.97544C74.7419 4.54932 75.5097 4.33628 76.3444 4.33628C76.9822 4.33628 77.5133 4.44283 77.9379 4.65586C78.3679 4.86411 78.7136 5.12555 78.9755 5.44035C79.2423 5.75025 79.4447 6.05531 79.5832 6.35553H79.6795V0.762665H82.8286V15.6382H79.7163V13.8514H79.5832C79.435 14.1613 79.2249 14.4688 78.9533 14.7739C78.6865 15.0741 78.3384 15.3235 77.9084 15.522C77.4832 15.7206 76.9647 15.8198 76.3522 15.8198ZM77.3525 13.3575C77.8614 13.3575 78.2914 13.2219 78.6419 12.9507C78.9978 12.6748 79.2694 12.2898 79.4573 11.7958C79.65 11.3019 79.7458 10.7233 79.7458 10.0599C79.7458 9.3965 79.6524 8.82026 79.4645 8.33121C79.2767 7.8421 79.005 7.46444 78.6491 7.1981C78.2938 6.93176 77.8614 6.79859 77.3525 6.79859C76.834 6.79859 76.3968 6.9366 76.0409 7.21262C75.685 7.48864 75.4158 7.87114 75.2333 8.36025C75.0502 8.8493 74.9587 9.41586 74.9587 10.0599C74.9587 10.7088 75.0502 11.2826 75.2333 11.7813C75.4206 12.2753 75.6904 12.6626 76.0409 12.9435C76.3968 13.2195 76.834 13.3575 77.3525 13.3575ZM90.6118 15.8562C89.4411 15.8562 88.433 15.6237 87.588 15.1589C86.7485 14.6891 86.1011 14.0257 85.6464 13.1686C85.1924 12.3067 84.9647 11.2874 84.9647 10.1107C84.9647 8.96311 85.1924 7.95591 85.6464 7.08913C86.1011 6.22236 86.7407 5.54684 87.5658 5.06263C88.3962 4.57842 89.3694 4.33628 90.486 4.33628C91.2363 4.33628 91.9355 4.45493 92.5829 4.69216C93.2351 4.92462 93.803 5.27566 94.2872 5.74541C94.7763 6.2151 95.1569 6.80586 95.4285 7.51768C95.7001 8.22466 95.8362 9.05271 95.8362 10.0018V10.8516H86.2246V8.93407H92.8642C92.8642 8.48858 92.7654 8.09391 92.5679 7.75013C92.3703 7.40629 92.0963 7.13754 91.7452 6.94386C91.3995 6.74535 90.9973 6.64606 90.5378 6.64606C90.0584 6.64606 89.6332 6.75503 89.2628 6.97291C88.8973 7.186 88.6106 7.47412 88.4034 7.83726C88.1957 8.19562 88.0897 8.59507 88.0849 9.03571V10.8589C88.0849 11.4109 88.1885 11.8878 88.3962 12.2898C88.6082 12.6917 88.9075 13.0016 89.2923 13.2195C89.6778 13.4374 90.1349 13.5464 90.6636 13.5464C91.0141 13.5464 91.3357 13.4979 91.6266 13.4011C91.9181 13.3042 92.168 13.159 92.3752 12.9653C92.5829 12.7716 92.7407 12.5343 92.8497 12.2535L95.7693 12.4423C95.6212 13.1299 95.3171 13.7304 94.8576 14.2436C94.4035 14.7521 93.8157 15.1492 93.0942 15.4349C92.3776 15.7157 91.5501 15.8562 90.6118 15.8562ZM101.053 0.762665V15.6382H97.8964V0.762665H101.053Z" fill="#333333"></path>
<path d="M47.7101 23.7349L46.3524 24.1115C46.267 23.8897 46.141 23.6742 45.9745 23.4649C45.8123 23.2515 45.5902 23.0757 45.3085 22.9376C45.0267 22.7995 44.6659 22.7305 44.2261 22.7305C43.6241 22.7305 43.1224 22.8665 42.7211 23.1385C42.3241 23.4063 42.1255 23.7474 42.1255 24.1617C42.1255 24.53 42.2621 24.8208 42.5354 25.0343C42.8086 25.2477 43.2356 25.4256 43.8163 25.5678L45.2765 25.9194C46.156 26.1286 46.8114 26.4488 47.2426 26.8798C47.6738 27.3067 47.8894 27.857 47.8894 28.5308C47.8894 29.0832 47.7272 29.577 47.4027 30.0122C47.0825 30.4475 46.6342 30.7906 46.0578 31.0417C45.4814 31.2928 44.8111 31.4183 44.0468 31.4183C43.0435 31.4183 42.213 31.2049 41.5555 30.778C40.898 30.3512 40.4817 29.7276 40.3066 28.9074L41.7412 28.5559C41.8779 29.0748 42.1362 29.464 42.5162 29.7234C42.9004 29.9829 43.4021 30.1127 44.0212 30.1127C44.7257 30.1127 45.285 29.9662 45.6991 29.6733C46.1176 29.3761 46.3268 29.0204 46.3268 28.6061C46.3268 28.2713 46.2072 27.9909 45.9681 27.7649C45.7291 27.5348 45.3618 27.3632 44.8665 27.2502L43.227 26.8735C42.3262 26.6643 41.6644 26.34 41.2417 25.9006C40.8233 25.457 40.6141 24.9025 40.6141 24.237C40.6141 23.693 40.7699 23.2118 41.0816 22.7933C41.3975 22.3747 41.8266 22.0463 42.3689 21.8077C42.9154 21.5692 43.5345 21.4499 44.2261 21.4499C45.1996 21.4499 45.9639 21.6591 46.5189 22.0777C47.0782 22.4961 47.4753 23.0486 47.7101 23.7349ZM54.4427 21.5754V22.8309H49.3449V21.5754H54.4427ZM50.8307 19.2654H52.3421V28.4554C52.3421 28.8739 52.404 29.1878 52.5278 29.3971C52.6559 29.6021 52.8182 29.7402 53.0145 29.8113C53.2153 29.8783 53.4266 29.9118 53.6486 29.9118C53.8151 29.9118 53.9517 29.9034 54.0585 29.8867C54.1652 29.8658 54.2506 29.849 54.3146 29.8365L54.6221 31.1673C54.5196 31.2049 54.3765 31.2426 54.193 31.2803C54.0094 31.3221 53.7767 31.343 53.4949 31.343C53.068 31.343 52.6495 31.253 52.2397 31.0731C51.8341 30.8931 51.4967 30.619 51.2277 30.2507C50.963 29.8825 50.8307 29.418 50.8307 28.8572V19.2654ZM62.9158 27.2753V21.5754H64.4274V31.2174H62.9158V29.5854H62.8134C62.5828 30.075 62.2238 30.4914 61.7372 30.8345C61.2506 31.1735 60.6358 31.343 59.8929 31.343C59.278 31.343 58.7316 31.2112 58.2533 30.9476C57.7752 30.6797 57.3994 30.278 57.1262 29.7423C56.8529 29.2025 56.7163 28.5224 56.7163 27.7021V21.5754H58.2277V27.6017C58.2277 28.3048 58.4284 28.8656 58.8297 29.284C59.2353 29.7025 59.752 29.9118 60.3798 29.9118C60.7556 29.9118 61.1374 29.8176 61.5259 29.6293C61.9185 29.441 62.2473 29.1522 62.5123 28.763C62.7815 28.3738 62.9158 27.8779 62.9158 27.2753ZM70.9098 31.4183C70.0902 31.4183 69.3663 31.2154 68.7388 30.8094C68.1113 30.3993 67.6204 29.8218 67.2657 29.0769C66.9116 28.3278 66.7346 27.4427 66.7346 26.4216C66.7346 25.4088 66.9116 24.53 67.2657 23.7851C67.6204 23.0402 68.1137 22.4648 68.7454 22.0588C69.3771 21.6529 70.1076 21.4499 70.9357 21.4499C71.5759 21.4499 72.0818 21.5546 72.4533 21.7637C72.8291 21.9688 73.1152 22.2032 73.3115 22.4668C73.5127 22.7263 73.668 22.9397 73.7794 23.1071H73.9071V18.3615H75.4187V31.2174H73.9583V29.736H73.7794C73.668 29.9118 73.5102 30.1336 73.3055 30.4014C73.1001 30.6651 72.808 30.9015 72.428 31.1108C72.048 31.3159 71.5422 31.4183 70.9098 31.4183ZM71.1152 30.0875C71.721 30.0875 72.2335 29.9327 72.6521 29.623C73.0706 29.3092 73.3886 28.876 73.606 28.3236C73.824 27.767 73.933 27.1247 73.933 26.3965C73.933 25.6767 73.8264 25.0469 73.6126 24.507C73.3994 23.963 73.0833 23.5403 72.6647 23.2389C72.2462 22.9335 71.7301 22.7807 71.1152 22.7807C70.4744 22.7807 69.9408 22.9418 69.5138 23.2641C69.0911 23.5821 68.7731 24.0153 68.5599 24.5635C68.3503 25.1075 68.2455 25.7185 68.2455 26.3965C68.2455 27.0828 68.3527 27.7063 68.5659 28.2671C68.7839 28.8237 69.1037 29.2673 69.5265 29.5979C69.9535 29.9243 70.4828 30.0875 71.1152 30.0875ZM78.3967 31.2174V21.5754H79.9083V31.2174H78.3967ZM79.1652 19.9685C78.8707 19.9685 78.6166 19.8701 78.4034 19.6734C78.1938 19.4767 78.0896 19.2403 78.0896 18.9641C78.0896 18.6879 78.1938 18.4514 78.4034 18.2547C78.6166 18.0581 78.8707 17.9597 79.1652 17.9597C79.4597 17.9597 79.712 18.0581 79.921 18.2547C80.1348 18.4514 80.2414 18.6879 80.2414 18.9641C80.2414 19.2403 80.1348 19.4767 79.921 19.6734C79.712 19.8701 79.4597 19.9685 79.1652 19.9685ZM86.6726 31.4183C85.7849 31.4183 85.0056 31.2112 84.3353 30.7969C83.6693 30.3826 83.1483 29.803 82.7725 29.0581C82.401 28.3131 82.2155 27.4427 82.2155 26.4467C82.2155 25.4423 82.401 24.5656 82.7725 23.8165C83.1483 23.0674 83.6693 22.4857 84.3353 22.0713C85.0056 21.6571 85.7849 21.4499 86.6726 21.4499C87.5609 21.4499 88.3378 21.6571 89.0038 22.0713C89.6741 22.4857 90.195 23.0674 90.5666 23.8165C90.9424 24.5656 91.1303 25.4423 91.1303 26.4467C91.1303 27.4427 90.9424 28.3131 90.5666 29.0581C90.195 29.803 89.6741 30.3826 89.0038 30.7969C88.3378 31.2112 87.5609 31.4183 86.6726 31.4183ZM86.6726 30.0875C87.3477 30.0875 87.9023 29.9181 88.3378 29.5791C88.7738 29.2401 89.096 28.7944 89.3049 28.242C89.5145 27.6896 89.6187 27.0912 89.6187 26.4467C89.6187 25.8022 89.5145 25.2017 89.3049 24.6451C89.096 24.0885 88.7738 23.6386 88.3378 23.2955C87.9023 22.9523 87.3477 22.7807 86.6726 22.7807C85.9981 22.7807 85.4434 22.9523 85.0074 23.2955C84.572 23.6386 84.2498 24.0885 84.0408 24.6451C83.8313 25.2017 83.7271 25.8022 83.7271 26.4467C83.7271 27.0912 83.8313 27.6896 84.0408 28.242C84.2498 28.7944 84.572 29.2401 85.0074 29.5791C85.4434 29.9181 85.9981 30.0875 86.6726 30.0875ZM100.405 23.7349L99.0478 24.1115C98.9623 23.8897 98.8364 23.6742 98.6696 23.4649C98.5076 23.2515 98.2854 23.0757 98.0036 22.9376C97.7223 22.7995 97.361 22.7305 96.9213 22.7305C96.3197 22.7305 95.8181 22.8665 95.4164 23.1385C95.0195 23.4063 94.8208 23.7474 94.8208 24.1617C94.8208 24.53 94.9575 24.8208 95.2309 25.0343C95.5037 25.2477 95.9307 25.4256 96.5118 25.5678L97.9716 25.9194C98.8515 26.1286 99.5067 26.4488 99.9379 26.8798C100.369 27.3067 100.585 27.857 100.585 28.5308C100.585 29.0832 100.423 29.577 100.098 30.0122C99.7777 30.4475 99.3297 30.7906 98.7533 31.0417C98.177 31.2928 97.5067 31.4183 96.7419 31.4183C95.7386 31.4183 94.9081 31.2049 94.2511 30.778C93.5934 30.3512 93.1773 29.7276 93.002 28.9074L94.4365 28.5559C94.5732 29.0748 94.8316 29.464 95.2116 29.7234C95.5958 29.9829 96.0975 30.1127 96.7166 30.1127C97.4212 30.1127 97.9801 29.9662 98.3944 29.6733C98.813 29.3761 99.0219 29.0204 99.0219 28.6061C99.0219 28.2713 98.9027 27.9909 98.6636 27.7649C98.4245 27.5348 98.0571 27.3632 97.5621 27.2502L95.9222 26.8735C95.0213 26.6643 94.3595 26.34 93.9373 25.9006C93.5187 25.457 93.3092 24.9025 93.3092 24.237C93.3092 23.693 93.4651 23.2118 93.7771 22.7933C94.0927 22.3747 94.5221 22.0463 95.0641 21.8077C95.6109 21.5692 96.23 21.4499 96.9213 21.4499C97.8951 21.4499 98.6594 21.6591 99.214 22.0777C99.7735 22.4961 100.17 23.0486 100.405 23.7349Z" fill="#333333"></path>
<path d="M0 32V24.2334H2.76195V29.2928H28.9264V3.64672H17.8888V0.939697H31.6884V32H0Z" fill="#333333"></path>
<path d="M0 20.9968V0.939697H14.5867V3.64672H2.76195V20.9968H0Z" fill="#FEBF0F"></path>
<path d="M5.30029 13.2093V10.5023H11.6999L9.71211 13.2093H5.30029Z" fill="#FEBF0F"></path>
</svg>
